# xmcd
#
# Track frame offsets: 
#        300
#        18475
#        41129
#        62826
#        83085
#        112382
#        133610
#        150368
#        173614
#        186529
#        203420
#        220311
#
# Disc length: 3258 seconds
#
# Revision: 0
# Processed by: cddbd v1.5.2PL0 Copyright (c) Steve Scherf et al.
# Submitted via: ExactAudioCopy v1.0b1
#
DISCID=a90cb60c
DTITLE=Aynsley Lister - Aynsley Lister
DYEAR=1999
DGENRE=British Blues Rock
TTITLE0=Got It Bad
TTITLE1=Angel O'Mine
TTITLE2=Without You
TTITLE3=She's A Woman
TTITLE4=Five Long Years
TTITLE5=Won't Take You Back
TTITLE6=Soundman
TTITLE7=Need Her So Bad
TTITLE8=Since I Met You Baby
TTITLE9=I Believe
TTITLE10=All Along The Watchtower
TTITLE11=Identity Blues
EXTD=
EXTT0=
EXTT1=
EXTT2=
EXTT3=
EXTT4=
EXTT5=
EXTT6=
EXTT7=
EXTT8=
EXTT9=
EXTT10=
EXTT11=
PLAYORDER=
